<svg height="3.3in" viewBox="0 0 240.8 240.8" width="3.3in" xmlns="http://www.w3.org/2000/svg"><circle cx="120.4" cy="120.4" fill="#9b8579" r="120.4"/><g stroke="#fff" stroke-miterlimit="10"><path d="m163.4 114.3c0-27.3-20.1-49.4-44.9-49.4s-45 22.1-45 49.4a51.4 51.4 0 0 0 16.5 38.2v26.1h56.9v-26.1a51.4 51.4 0 0 0 16.5-38.2z" fill="none" stroke-width="2.95"/><rect fill="none" height="15.71" rx="7.9" stroke-width="1.67" width="64.3" x="88" y="178.6"/><rect fill="none" height="13.86" rx="6.9" stroke-width="1.62" width="29.8" x="103.6" y="195.4"/><rect fill="#fff" height="25.72" rx="2.1" stroke-width=".71" transform="matrix(.61014516 -.79228964 .79228964 .61014516 -19.5 69.5)" width="4.3" x="58.8" y="41.7"/><rect fill="#fff" height="25.72" rx="2.1" stroke-width=".71" width="4.3" x="119" y="20.1"/><rect fill="#fff" height="25.72" rx="2.1" stroke-width=".71" transform="matrix(.65077422 .75927131 -.75927131 .65077422 113.7 -118.6)" width="4.3" x="183.8" y="51.5"/><rect fill="#fff" height="25.72" rx="2.1" stroke-width=".71" transform="matrix(.05930637 .99823983 -.99823983 .05930637 298.2 -109.6)" width="4.3" x="205.2" y="90.6"/><rect fill="#fff" height="25.72" rx="2.1" stroke-width=".71" transform="matrix(.38268343 -.92387953 .92387953 .38268343 -73.1 97.6)" width="4.3" x="34.3" y="90.6"/><rect fill="none" height="51" rx="3.9" stroke-width="1.42" width="7.8" x="103.5" y="127.6"/><rect fill="none" height="51" rx="3.9" stroke-width="1.42" width="7.8" x="126.1" y="127.6"/></g></svg>