<svg height="3.3in" viewBox="0 0 240.8 240.8" width="3.3in" xmlns="http://www.w3.org/2000/svg"><circle cx="120.4" cy="120.4" fill="#ddd6cd" r="120.4"/><g fill="none" stroke="#fff" stroke-miterlimit="10"><path d="m120.4 59.8h81.9v121.11h-81.9z" stroke-width="2"/><path d="m38.5 59.8h81.9v121.11h-81.9z" stroke-width="2"/><path d="m174.9 66.3h21.9v47.06h-21.9z" stroke-width=".95"/><g stroke-width=".96"><path d="m43.6 132.1h71.8v45.19h-71.8z"/><path d="m42.4 65.1h71.8"/><path d="m42.4 71.9h70.1"/><path d="m43.6 80.2h68.9"/><path d="m42.4 87.2h71.8"/><path d="m42.4 94.1h70.1"/><path d="m43.6 102.3h68.9"/><path d="m42.4 107.2h71.8"/><path d="m42.4 114.1h70.1"/><path d="m43.6 122.3h68.9"/><path d="m124.3 122.3h71.8"/></g><path d="m125.5 69.8h45.2" stroke-width=".76"/><path d="m125.5 75.2h45.2" stroke-width=".76"/><path d="m125.5 79.7h45.2" stroke-width=".76"/><path d="m125.5 85.6h45.2" stroke-width=".76"/><path d="m125 91.9h45.3" stroke-width=".76"/><path d="m125 99.2h45.3" stroke-width=".76"/><path d="m125.5 105.6h45.2" stroke-width=".76"/><path d="m125 112.2h45.3" stroke-width=".76"/><path d="m125 117.2h45.3" stroke-width=".76"/><path d="m124.3 129.1h70.1" stroke-width=".96"/><path d="m125.5 137.3h68.9" stroke-width=".96"/><path d="m124.3 143.9h71.8" stroke-width=".96"/><path d="m124.3 150.8h70.1" stroke-width=".96"/><path d="m125.5 159h68.9" stroke-width=".96"/><path d="m124.3 164.9h71.8" stroke-width=".96"/><path d="m124.3 171.7h70.1" stroke-width=".96"/></g></svg>