<svg height="2in" viewBox="0 0 129.3 145.8" width="1.8in" xmlns="http://www.w3.org/2000/svg"><ellipse cx="64.6" cy="65.7" fill="#9b8579" rx="64.6" ry="65.7"/><g fill="#fff"><path d="m40.9 34.8c0 4.3-3 7.6-7.9 7.6a7.4 7.4 0 0 1 -7.7-7.6 7.5 7.5 0 0 1 7.8-7.7 7.5 7.5 0 0 1 7.8 7.7zm-14.8 71.5v-55.9h14v55.9z"/><path d="m55 67.1c0-6.5-.1-11.8-.4-16.7h12.1l.7 8.4h.4c2.3-4.4 8.3-9.6 17.5-9.6s19.5 6.3 19.5 24v33.1h-13.9v-31.5c0-8.1-2.9-14.2-10.5-14.2-5.5 0-9.4 4.1-10.8 8.3a13.5 13.5 0 0 0 -.6 4.6v32.8h-14z"/></g></svg>