<svg height="1080" viewBox="0 0 1080 1080" width="1080" xmlns="http://www.w3.org/2000/svg" xmlns:xlink="http://www.w3.org/1999/xlink"><image height="1080" transform="matrix(.29 0 0 .29 47 727)" width="1080" xlink:href="../Documents/W%20O%20R%20K%20/Rapidboostmarketing/Social%20media%20/Punjab%20Jewellers/Social%20Media%20/September%20/Punjab-Jewellers-September-batch-1/5.png"/><image height="1080" transform="matrix(.28 0 0 .28 748.8 727)" width="1080" xlink:href="../Documents/W%20O%20R%20K%20/Rapidboostmarketing/Social%20media%20/Punjab%20Jewellers/Social%20Media%20/September%20/Punjab-Jewellers-September-batch-1/1.png"/><image height="1080" transform="matrix(.29 0 0 .29 746.1 31.7)" width="1080" xlink:href="../Documents/W%20O%20R%20K%20/Rapidboostmarketing/Social%20media%20/Punjab%20Jewellers/Social%20Media%20/September%20/Punjab-Jewellers-September-batch-1/3.png"/><image height="1080" transform="matrix(.3 0 0 .3 740.8 365.5)" width="1080" xlink:href="../Documents/W%20O%20R%20K%20/Rapidboostmarketing/Social%20media%20/Punjab%20Jewellers/Social%20Media%20/September%20/Punjab-Jewellers-September-batch-1/8.png"/><image height="1080" transform="matrix(.29 0 0 .29 389.5 376.5)" width="1080" xlink:href="../Documents/W%20O%20R%20K%20/Rapidboostmarketing/Social%20media%20/Punjab%20Jewellers/Social%20Media%20/September%20/Punjab-Jewellers-September-batch-1/6.png"/><image height="1080" transform="matrix(.33 0 0 .33 363.3 11)" width="1080" xlink:href="../Documents/W%20O%20R%20K%20/Rapidboostmarketing/Social%20media%20/Punjab%20Jewellers/Social%20Media%20/September%20/Punjab-Jewellers-September-batch-1/10.png"/><image height="1080" transform="matrix(.28 0 0 .28 47 35.7)" width="1080" xlink:href="../Documents/W%20O%20R%20K%20/Rapidboostmarketing/Social%20media%20/Punjab%20Jewellers/Social%20Media%20/September%20/Punjab-Jewellers-September-batch-1/Punjab-Jewellers-September-batch-1.png"/><image height="1080" transform="matrix(.28 0 0 .28 391.6 730.9)" width="1080" xlink:href="../Documents/W%20O%20R%20K%20/Rapidboostmarketing/Social%20media%20/Punjab%20Jewellers/Social%20Media%20/September%20/Punjab-Jewellers-September-batch-1/Punjab-Jewellers-September-batch-1%202/4-R.png"/><image height="1080" transform="matrix(.3 0 0 .3 36.8 368.6)" width="1080" xlink:href="../Documents/W%20O%20R%20K%20/Rapidboostmarketing/Social%20media%20/Punjab%20Jewellers/Social%20Media%20/September%20/Punjab-Jewellers-September-batch-1/13.png"/></svg>